<svg width="256" height="256" viewBox="0 0 256 256" fill="none" xmlns="http://www.w3.org/2000/svg">
<g clip-path="url(#clip0_19_42)">
<path d="M224 256C224 317.856 173.856 368 112 368C50.1441 368 0 317.856 0 256C0 194.144 50.1441 144 112 144C173.856 144 224 194.144 224 256ZM31.8804 256C31.8804 300.249 67.7512 336.12 112 336.12C156.249 336.12 192.12 300.249 192.12 256C192.12 211.751 156.249 175.88 112 175.88C67.7512 175.88 31.8804 211.751 31.8804 256Z" fill="black"/>
<path d="M168 72C168 102.928 142.928 128 112 128C81.0721 128 56 102.928 56 72C56 41.0721 81.0721 16 112 16C142.928 16 168 41.0721 168 72ZM80.0265 72C80.0265 89.6585 94.3415 103.973 112 103.973C129.658 103.973 143.973 89.6585 143.973 72C143.973 54.3415 129.658 40.0265 112 40.0265C94.3415 40.0265 80.0265 54.3415 80.0265 72Z" fill="black"/>
<rect x="160" y="112" width="96" height="24" rx="12" fill="black"/>
<rect x="220" y="76" width="96" height="24" rx="12" transform="rotate(90 220 76)" fill="black"/>
</g>
<defs>
<clipPath id="clip0_19_42">
<rect width="256" height="256" fill="white"/>
</clipPath>
</defs>
</svg>
