<svg width="256" height="256" viewBox="0 0 256 256" fill="none" xmlns="http://www.w3.org/2000/svg">
<g clip-path="url(#clip0_19_30)">
<path d="M96 176C96 158.327 110.327 144 128 144C145.673 144 160 158.327 160 176V256H96V176Z" fill="black"/>
<path d="M2.82712 108.604C1.03391 110.124 0 112.355 0 114.706V227C0 243.016 12.9837 256 29 256H85V176C85 152.252 104.252 133 128 133C151.748 133 171 152.252 171 176V256H227C243.016 256 256 243.016 256 227V114.706C256 112.355 254.966 110.124 253.173 108.604L133.173 6.88482C130.188 4.35491 125.812 4.35491 122.827 6.88482L2.82712 108.604Z" fill="black"/>
</g>
<defs>
<clipPath id="clip0_19_30">
<rect width="256" height="256" fill="white"/>
</clipPath>
</defs>
</svg>
