<svg width="256" height="256" viewBox="0 0 256 256" fill="none" xmlns="http://www.w3.org/2000/svg">
<rect x="64" y="8" width="128" height="48" fill="black"/>
<path fill-rule="evenodd" clip-rule="evenodd" d="M176 80H80V96H74C50.804 96 32 114.804 32 138V256H224V138C224 114.804 205.196 96 182 96H176V80ZM128 128C121.373 128 116 133.373 116 140V164H92C85.3726 164 80 169.373 80 176C80 182.627 85.3726 188 92 188H116V212C116 218.627 121.373 224 128 224C134.627 224 140 218.627 140 212V188H164C170.627 188 176 182.627 176 176C176 169.373 170.627 164 164 164H140V140C140 133.373 134.627 128 128 128Z" fill="black"/>
</svg>
