<svg width="256" height="256" viewBox="0 0 256 256" fill="none" xmlns="http://www.w3.org/2000/svg">
<path fill-rule="evenodd" clip-rule="evenodd" d="M118.627 155H137.373L251.639 40.7332C242.331 16.8909 219.138 0 192 0H64C36.8619 0 13.669 16.8909 4.3606 40.7333L118.627 155ZM0.178855 59.1789L111.995 170.995L112 170.99V171H144V170.972L144.014 170.986L255.821 59.1788C255.94 60.7704 256 62.3781 256 64V204C256 232.719 232.719 256 204 256H52C23.2812 256 0 232.719 0 204V64C0 62.3782 0.0603255 60.7705 0.178855 59.1789Z" fill="black"/>
</svg>
