<svg width="256" height="256" viewBox="0 0 256 256" fill="none" xmlns="http://www.w3.org/2000/svg">
<path fill-rule="evenodd" clip-rule="evenodd" d="M45 8C25.1177 8 9 24.1178 9 44V97C9 136.212 40.7878 168 80 168C119.212 168 151 136.212 151 97V44C151 24.1177 134.882 8 115 8H98.383V23H119C128.389 23 136 30.6112 136 40V98C136 128.928 110.928 154 80 154C49.0721 154 24 128.928 24 98V40C24 30.6112 31.6112 23 41 23H61.617V8H45Z" fill="black"/>
<path d="M228 173C228 182.324 225.957 191.556 221.986 200.171C218.016 208.785 212.197 216.612 204.861 223.205C197.526 229.798 188.817 235.027 179.232 238.595C169.647 242.164 159.374 244 149 244C138.626 244 128.353 242.164 118.768 238.595C109.183 235.027 100.474 229.798 93.1386 223.205C85.8027 216.612 79.9836 208.785 76.0135 200.171C72.0434 191.556 70 182.324 70 173L88.9995 173C88.9995 180.081 90.5515 187.094 93.5668 193.636C96.5821 200.178 101.002 206.123 106.573 211.13C112.145 216.138 118.759 220.11 126.039 222.82C133.318 225.53 141.121 226.925 149 226.925C156.879 226.925 164.682 225.53 171.961 222.82C179.241 220.11 185.855 216.138 191.427 211.13C196.998 206.123 201.418 200.178 204.433 193.636C207.449 187.094 209.001 180.081 209.001 173H228Z" fill="black"/>
<rect x="70" y="164" width="19" height="9" fill="black"/>
<rect x="209" y="128" width="19" height="45" fill="black"/>
<circle cx="218" cy="100" r="36" fill="black"/>
</svg>
