<svg width="256" height="256" viewBox="0 0 256 256" fill="none" xmlns="http://www.w3.org/2000/svg">
<path fill-rule="evenodd" clip-rule="evenodd" d="M99.7157 7.02944C92.2143 11.5303 88 17.6348 88 24L64 24V56H24V256H232V56H192V24L141.859 24L168 24C168 17.6348 163.786 11.5303 156.284 7.02943C148.783 2.52856 138.609 0 128 0C117.391 0 107.217 2.52856 99.7157 7.02944ZM141.859 24C143.221 26.3534 144 29.0857 144 32V44H168V60H88V44H112V32C112 29.0857 112.779 26.3534 114.141 24C116.907 19.2176 122.078 16 128 16C133.922 16 139.093 19.2176 141.859 24ZM200 120V144H56V120H200ZM200 200V176H56V200H200Z" fill="black"/>
</svg>
