<svg width="256" height="256" viewBox="0 0 256 256" fill="none" xmlns="http://www.w3.org/2000/svg">
<path fill-rule="evenodd" clip-rule="evenodd" d="M96 0C51.8172 0 16 35.8172 16 80V215C16 237.644 34.3563 256 57 256H199C221.644 256 240 237.644 240 215V80C240 35.8172 204.183 0 160 0H96ZM127 32C120.925 32 116 36.9249 116 43V68H91C84.9249 68 80 72.9249 80 79V81C80 87.0751 84.9249 92 91 92H116V117C116 123.075 120.925 128 127 128H129C135.075 128 140 123.075 140 117V92H165C171.075 92 176 87.0751 176 81V79C176 72.9249 171.075 68 165 68H140V43C140 36.9249 135.075 32 129 32H127ZM64 160C64 151.163 71.1634 144 80 144H176C184.837 144 192 151.163 192 160C192 168.837 184.837 176 176 176H80C71.1634 176 64 168.837 64 160ZM80 192C71.1634 192 64 199.163 64 208C64 216.837 71.1634 224 80 224H128C136.837 224 144 216.837 144 208C144 199.163 136.837 192 128 192H80Z" fill="black"/>
</svg>
